# xmcd CD database file
#
# Track frame offsets:
#	150
#	11868
#	31004
#	45564
#	66539
#	80581
#	93556
#	112768
#	134518
#	153482
#	162823
#	174119
#	190779
#	198403
#	223144
#	241458
#	258852
#	276040
#	297819
#
# Disc length: 4259 seconds
#
# Revision: 0
# Processed by: cddbd v1.5.1PL0 Copyright (c) Steve Scherf et al.
# Submitted via: CDex 1.51
#
DISCID=0810a113
DTITLE=Mumbles - VV Summer Swap
DYEAR=2005
DGENRE=Jazz
TTITLE0=Laraaji - Meditation II
TTITLE1=Lou Rawls - You Made Me So Very Happy
TTITLE2=Eddie Fisher - Two By Two
TTITLE3=Georges Raudi - Stercock
TTITLE4=Odell Brown And The Organizers - Think About It
TTITLE5=Blue Mitchell - Collision In Black
TTITLE6=Don Ellis - Whiplash
TTITLE7=Art Farmer - Soulsides
TTITLE8=Jack Arel and Pierre Dutour - Shore Of Sumatra
TTITLE9=Norrie Paramour - Scotland Yard
TTITLE10=John Dankworth - Two Piece Flower
TTITLE11=Pere Ubu - I Will Wait
TTITLE12=Brahman - Automatic Man
TTITLE13=Morgana King - Like A Seed
TTITLE14=Wolfgang Dauner - Take Off Your Clothes To Feel The Setting Sun
TTITLE15=Reverberi - Cat Casanova
TTITLE16=101 Strings - A Taste Of Soul
TTITLE17=Richard Harris - Requiem
TTITLE18=Mystery
EXTD=YEAR: 2005
EXTT0=
EXTT1=
EXTT2=
EXTT3=
EXTT4=
EXTT5=
EXTT6=
EXTT7=
EXTT8=
EXTT9=
EXTT10=
EXTT11=
EXTT12=
EXTT13=
EXTT14=
EXTT15=
EXTT16=
EXTT17=
EXTT18=
PLAYORDER=
